# xmcd
#
# Track frame offsets: 
#        150
#        20770
#        38433
#        61120
#        84595
#        107375
#        132188
#        152730
#        179103
#        210755
#        227445
#        251350
#        268420
#        295195
#
# Disc length: 4166 seconds
#
# Revision: 0
# Processed by: cddbd v1.5.2PL0 Copyright (c) Steve Scherf et al.
# Submitted via: ExactAudioCopyFreeDBPlugin 1.0
#
DISCID=b410440e
DTITLE=Junior Wells - Come On in This House
DYEAR=1996
DGENRE=Blues
TTITLE0=What My Momma Told Me - That's All Right
TTITLE1=Why Are People Like That?
TTITLE2=Trust My Baby
TTITLE3=Million Years Blues
TTITLE4=Give Me One Reason
TTITLE5=Ships On The Ocean
TTITLE6=She Wants To Sell My Monkey
TTITLE7=So Glad Youre Mine
TTITLE8=Mystery Train
TTITLE9=Im Gonna Move To Kansas City
TTITLE10=King Fish Blues
TTITLE11=You Better Watch Yourself
TTITLE12=Come On This House
TTITLE13=The Goat
EXTD=
EXTT0=
EXTT1=
EXTT2=
EXTT3=
EXTT4=
EXTT5=
EXTT6=
EXTT7=
EXTT8=
EXTT9=
EXTT10=
EXTT11=
EXTT12=
EXTT13=
PLAYORDER=
